<?xml version="1.0" encoding="UTF-8" standalone="no"?>
<!-- Created with Inkscape (http://www.inkscape.org/) -->
<svg
   width="68.734001"
   height="68.734001"
   viewBox="0 0 18.185871 18.185871"
   version="1.1"
   id="svg1429"
   xmlns="http://www.w3.org/2000/svg">
  <path
     id="path45908-6"
     style="fill:#ffffff;fill-opacity:1;stroke:#4f2d7f;stroke-width:2.5;stroke-linecap:butt;stroke-linejoin:round;stroke-dasharray:none;stroke-opacity:1;paint-order:markers stroke fill"
     d="m 9.0931431,1.5237974 -6.5555801,3.7846553 -3.09e-5,7.5689673 6.5555969,3.784654 6.55521,-3.784661 -1.3e-5,-7.5689533 z m 4.0860389,4.1204625 c 0.193206,-2.11e-4 0.386134,0.073815 0.534256,0.2216819 0.296245,0.2957354 0.296825,0.7722299 0.0011,1.0684575 L 8.3582795,12.299213 c -0.00387,0.0028 -0.00471,0.0049 -0.00721,0.0076 -0.00387,0.0028 -0.00478,0.0042 -0.00739,0.007 l -0.00513,0.0049 c -0.295803,0.296283 -0.772211,0.296881 -1.0685139,0.0014 -0.042893,-0.04262 -0.079281,-0.08936 -0.1097451,-0.138465 L 4.7830738,9.7925857 C 4.4877549,9.4958089 4.4888289,9.0189279 4.7852539,8.7234036 5.0818107,8.4278652 5.5584458,8.4288006 5.8537226,8.7255109 L 7.8188004,10.700701 12.644842,5.866842 C 12.792762,5.7186789 12.98593,5.6445975 13.17906,5.6444357 Z" />
</svg>
