<svg width="64" height="64" viewBox="0 0 64 64" fill="none" xmlns="http://www.w3.org/2000/svg">
  <!-- Microchip -->
  <rect x="16" y="16" width="32" height="32" rx="4" fill="#4f2d7f"/>
  <!-- Top Pins -->
  <rect x="20" y="8" width="4" height="8" rx="2" fill="#4f2d7f"/>
  <rect x="28" y="8" width="4" height="8" rx="2" fill="#4f2d7f"/>
  <rect x="36" y="8" width="4" height="8" rx="2" fill="#4f2d7f"/>
  <rect x="44" y="8" width="4" height="8" rx="2" fill="#4f2d7f"/>
  <!-- Bottom Pins -->
  <rect x="20" y="48" width="4" height="8" rx="2" fill="#4f2d7f"/>
  <rect x="28" y="48" width="4" height="8" rx="2" fill="#4f2d7f"/>
  <rect x="36" y="48" width="4" height="8" rx="2" fill="#4f2d7f"/>
  <rect x="44" y="48" width="4" height="8" rx="2" fill="#4f2d7f"/>
  <!-- Left Pins -->
  <rect x="8" y="20" width="8" height="4" rx="2" fill="#4f2d7f"/>
  <rect x="8" y="28" width="8" height="4" rx="2" fill="#4f2d7f"/>
  <rect x="8" y="36" width="8" height="4" rx="2" fill="#4f2d7f"/>
  <rect x="8" y="44" width="8" height="4" rx="2" fill="#4f2d7f"/>
  <!-- Right Pins -->
  <rect x="48" y="20" width="8" height="4" rx="2" fill="#4f2d7f"/>
  <rect x="48" y="28" width="8" height="4" rx="2" fill="#4f2d7f"/>
  <rect x="48" y="36" width="8" height="4" rx="2" fill="#4f2d7f"/>
  <rect x="48" y="44" width="8" height="4" rx="2" fill="#4f2d7f"/>
  <!-- AI Text -->
  <text x="32" y="38" font-family="Arial, sans-serif" font-size="12" font-weight="bold" fill="white" text-anchor="middle">AI</text>
</svg>

